<?xml version="1.0" encoding="UTF-8"?>
<svg width="24px" height="24px" viewBox="0 0 24 24" version="1.1" xmlns="http://www.w3.org/2000/svg" xmlns:xlink="http://www.w3.org/1999/xlink">
    <!-- Generator: Sketch 49.3 (51167) - http://www.bohemiancoding.com/sketch -->
    <title>checkmark-icon-color-4</title>
    <desc>Created with Sketch.</desc>
    <defs></defs>
    <g id="checkmark-icon" stroke="none" stroke-width="1" fill="none" fill-rule="evenodd">
        <path d="M5,10.4142328 L3.70710678,11.707126 C3.31658249,12.0976503 2.68341751,12.0976503 2.29289322,11.707126 C1.90236893,11.3166017 1.90236893,10.6834367 2.29289322,10.2929124 L4.29289322,8.29291242 C4.68341751,7.90238812 5.31658249,7.90238812 5.70710678,8.29291242 L9.1398858,11.7256914 L19.4631245,5.15635771 C19.8585475,4.90472489 20.3756868,4.96149242 20.7071068,5.29291242 L21.7071068,6.29291242 C22.1096844,6.69549005 22.0954091,7.35246253 21.6757246,7.73717334 L9.67572463,18.7371733 C9.25897987,19.1191894 8.60866359,19.0800508 8.2407434,18.6508106 L4.92511265,14.7825747 C4.5656905,14.3632489 4.61425204,13.7319489 5.03357788,13.3725267 C5.45290372,13.0131046 6.08420371,13.0616661 6.44362586,13.480992 L9.08641073,16.564241 L17.7695166,8.60472723 L9.53687549,13.8436807 C9.14145249,14.0953135 8.62431321,14.038546 8.29289322,13.707126 L5,10.4142328 Z" id="icon" fill="#46CE1F" fill-rule="nonzero"></path>
    </g>
</svg>