<?xml version="1.0" encoding="UTF-8"?>
<svg width="130px" height="40px" viewBox="0 0 130 40" version="1.1" xmlns="http://www.w3.org/2000/svg" xmlns:xlink="http://www.w3.org/1999/xlink">
    <!-- Generator: Sketch 49.3 (51167) - http://www.bohemiancoding.com/sketch -->
    <title>Logotypes/logo-mashable-white</title>
    <desc>Created with Sketch.</desc>
    <defs></defs>
    <g id="Logotypes/logo-mashable" stroke="none" stroke-width="1" fill="none" fill-rule="evenodd">
        <path d="M19.8793423,30.6099824 L19.8793423,16.3200105 L14.4600267,30.6099824 L12.00633,30.6099824 L6.55170936,16.3200105 L6.55170936,30.6099824 L1,30.6099824 L1,9 L8.71413987,9 L13.2331783,20.9238185 L17.7169118,9 L25.4310517,9 L25.4310517,30.6099824 L19.8793423,30.6099824 Z M36.462972,30.6100721 L36.462972,29.0547914 C35.496498,30.2201442 33.6209205,31 31.6217755,31 C29.2342757,31 26.2642436,29.3472373 26.2642436,25.8467481 C26.2642436,22.0582439 29.2342757,20.7909782 31.6217755,20.7909782 C33.6871173,20.7909782 35.5273898,21.473352 36.462972,22.6387048 L36.462972,21.0834241 C36.462972,19.7231074 35.3023205,18.7837356 33.2987625,18.7837356 C31.7497561,18.7837356 30.2007498,19.3996444 28.9430096,20.4675152 L27.1027371,17.0024739 C29.1062951,15.2832463 31.7850611,14.5742865 34.1725609,14.5742865 C37.9148897,14.5742865 41.4321491,15.9656202 41.4321491,20.8264261 L41.4321491,30.6100721 L36.462972,30.6100721 Z M36.462972,25.1998222 C35.9466366,24.4554144 34.7859851,24.0965035 33.6871173,24.0965035 C32.3984853,24.0965035 31.2025288,24.6813953 31.2025288,25.9132131 C31.2025288,27.1450308 32.3984853,27.7254917 33.6871173,27.7254917 C34.7859851,27.7254917 35.9466366,27.3399948 36.462972,26.5911559 L36.462972,25.1998222 Z M43.8505408,25.0066307 C45.0111922,26.0434844 47.4957808,27.1113552 49.3360533,27.1113552 C50.8188628,27.1113552 51.4322869,26.6904103 51.4322869,26.0080365 C51.4322869,24.0672589 42.3677313,26.0745014 42.3677313,19.7248798 C42.3677313,16.9687984 44.7552311,14.5716279 49.0447871,14.5716279 C51.6926612,14.5716279 53.8859836,15.4135177 55.5629705,16.6453354 L53.6609143,20.1768417 C52.7253321,19.2684869 50.9512565,18.462045 49.0800921,18.462045 C47.9150275,18.462045 47.1427309,18.9140069 47.1427309,19.5299158 C47.1427309,21.2447125 56.1763947,19.4634508 56.1763947,25.8795375 C56.1763947,28.8615999 53.5638256,30.9973414 49.110984,30.9973414 C46.3042374,30.9973414 43.431294,30.0579696 41.785199,28.5691539 L43.8505408,25.0066307 Z M67.3729303,30.6100721 L67.3729303,21.504369 C67.3729303,19.5946084 66.3711513,18.9786995 64.7912531,18.9786995 C63.3393354,18.9786995 62.3728614,19.7895724 61.7903291,20.5029632 L61.7903291,30.6100721 L56.821152,30.6100721 L56.821152,9.00008963 L61.7903291,9.00008963 L61.7903291,16.873975 C62.7259113,15.7706562 64.5661838,14.5742865 67.1787529,14.5742865 C70.7269042,14.5742865 72.3421074,16.581529 72.3421074,19.4661094 L72.3421074,30.6100721 L67.3729303,30.6100721 Z M83.2478182,30.6100721 L83.2478182,29.0547914 C82.2813441,30.2201442 80.4057666,31 78.4066217,31 C76.0191219,31 73.0490898,29.3472373 73.0490898,25.8467481 C73.0490898,22.0582439 76.0191219,20.7909782 78.4066217,20.7909782 C80.4719635,20.7909782 82.312236,21.473352 83.2478182,22.6387048 L83.2478182,21.0834241 C83.2478182,19.7231074 82.0871667,18.7837356 80.0836086,18.7837356 C78.5346023,18.7837356 76.9855959,19.3996444 75.7278557,20.4675152 L73.8875832,17.0024739 C75.8911413,15.2832463 78.5699072,14.5742865 80.9574071,14.5742865 C84.6997358,14.5742865 88.2169952,15.9656202 88.2169952,20.8264261 L88.2169952,30.6100721 L83.2478182,30.6100721 Z M83.2478182,25.1998222 C82.7314827,24.4554144 81.5708312,24.0965035 80.4719635,24.0965035 C79.1833314,24.0965035 77.9873749,24.6813953 77.9873749,25.9132131 C77.9873749,27.1450308 79.1833314,27.7254917 80.4719635,27.7254917 C81.5708312,27.7254917 82.7314827,27.3399948 83.2478182,26.5911559 L83.2478182,25.1998222 Z M89.924874,30.6100721 L89.924874,9.00008963 L94.8940511,9.00008963 L94.8940511,16.80751 C96.1208994,15.2522293 97.7978863,14.5742865 99.5101782,14.5742865 C103.415793,14.5742865 106.381412,17.6493998 106.381412,22.7716347 C106.381412,28.0844026 103.349596,31 99.5101782,31 C97.7669945,31 96.1870963,30.2866092 94.8940511,28.7977935 L94.8940511,30.6100721 L89.924874,30.6100721 Z M101.315146,22.7716347 C101.315146,20.4364982 99.8323363,18.9786995 97.8640832,18.9786995 C96.8005204,18.9786995 95.5074752,19.5635914 94.8940511,20.4054812 L94.8940511,25.1998222 C95.5074752,26.041712 96.8005204,26.5911559 97.8640832,26.5911559 C99.8323363,26.5911559 101.315146,25.1333572 101.315146,22.7716347 Z M107.091482,9.00053168 L112.060662,9.00053168 L112.060662,30.6105141 L107.091482,30.6105141 L107.091482,9.00053168 Z M121.029899,14.5718932 C125.646026,14.5718932 129,17.9749005 129,23.2876684 L129,24.4220041 L117.900994,24.4220041 C118.254044,25.8133378 119.547089,26.9831216 121.802196,26.9831216 C122.901063,26.9831216 124.710444,26.4957117 125.610721,25.6538219 L127.773152,28.9238992 C126.224145,30.3196639 123.642468,30.9976067 121.254968,30.9976067 C116.449077,30.9976067 112.768532,27.8560284 112.768532,22.7692415 C112.768532,18.2318984 116.157811,14.5718932 121.029899,14.5718932 Z M117.834798,21.0189968 L124.255892,21.0189968 C124.127912,19.9156781 123.32031,18.5908094 121.029899,18.5908094 C118.867468,18.5908094 118.028975,19.8846611 117.834798,21.0189968 Z" id="logo" fill="#FFFFFF" fill-rule="nonzero"></path>
    </g>
</svg>