<?xml version="1.0" encoding="UTF-8"?>
<svg width="120px" height="40px" viewBox="0 0 120 40" version="1.1" xmlns="http://www.w3.org/2000/svg" xmlns:xlink="http://www.w3.org/1999/xlink">
    <!-- Generator: Sketch 49.3 (51167) - http://www.bohemiancoding.com/sketch -->
    <title>Logotypes/logo-verge-white</title>
    <desc>Created with Sketch.</desc>
    <defs></defs>
    <g id="Logotypes/logo-verge" stroke="none" stroke-width="1" fill="none" fill-rule="evenodd">
        <path d="M1,15.885257 C1.54822529,15.6101994 2.34302989,15.4995253 3.02824368,15.4995253 L4.5003954,15.4995253 L4.5003954,27.7493558 C4.5003954,28.3548081 4.34170575,29.0948054 3.8754023,29.4995253 L10.7503264,29.4995253 L10.7503264,10 L1,10.0008138 L1,15.885257 Z M28.4999678,11.7504408 L28.4999678,27.7498983 C28.4999678,28.3550793 28.3643356,29.0033908 27.8980322,29.4995253 L39.9999494,29.4995253 L39.9999494,23.4249288 C39.1601149,23.810118 38.1249701,24.0002713 37.1248184,24.0002713 L34.4997931,24.0002713 L34.4997931,22 L35.8748322,22 C36.6248782,22 37.2878483,22.0724264 37.9999172,22.3748813 L37.9999172,17.1251865 C37.2878483,17.4270989 36.6248782,17.5000678 35.8748322,17.5000678 L34.4997931,17.5008816 L34.4997931,15.2502374 L37.1248184,15.2502374 C38.1252414,15.2502374 39.1601149,15.4393056 39.9999494,15.8250373 L39.9999494,10.0005425 L27.8749747,10.0005425 C28.3412782,10.4049912 28.4999678,11.1452597 28.4999678,11.7504408 Z M53.750069,20.7500339 L51.7500368,15.2502374 L54.7502207,15.2502374 L56.7502529,10.0002713 L42.7502989,10.0002713 C43.1894759,10.4416113 43.598,10.9363895 43.899646,11.5149871 L51.6450575,29.5003391 L55.8746115,29.5003391 L62.2501379,14.5004747 L62.2501379,27.7501695 C62.2463402,28.3713549 62.0914483,29.0956192 61.6251448,29.5003391 L73.7501195,29.5003391 L73.7501195,23.4249288 C72.919508,23.8106605 71.8751402,24.2498305 70.8747172,24.2498305 L68.249692,24.2498305 L68.249692,22 L69.624731,22 C70.374777,22 71.0372046,22.0729689 71.7495448,22.3748813 L71.7495448,17.1251865 C71.0372046,17.4273701 70.374777,17.5000678 69.624731,17.5000678 L68.249692,17.5000678 L68.249692,15.5003391 L70.8747172,15.5003391 C71.8751402,15.5003391 72.919508,15.6899498 73.7501195,16.075139 L73.7501195,10.0008138 L57.7501333,10 L53.750069,20.7500339 Z M21.2498851,17.4997966 L17.9998667,17.4997966 L17.9998667,15.4997966 L18.2534989,15.4997966 C18.9381701,15.4997966 19.733246,15.6104706 20.2497333,15.8855283 L20.2497333,10.0008138 L11.7553609,10.0008138 L11.7553609,29.5000678 L18.625131,29.5000678 C18.1588276,29.0953479 17.9998667,28.3553506 17.9998667,27.7498983 L17.9998667,22.2498305 L21.2496138,22.2498305 L21.2496138,27.7493558 C21.2496138,28.3548081 21.0906529,29.0948054 20.6246207,29.4995253 L27.4998161,29.4995253 L27.4998161,10.0008138 L21.2498851,10 L21.2498851,17.4997966 Z M87.1250805,20.6998508 C88.1661931,19.5502509 88.8001379,18.0415028 88.8001379,16.5083412 C88.8001379,12.0165469 85.455177,10.0018988 81.8666207,10.0021701 L74.1279908,10.0005425 C74.5918529,10.4030924 74.7510851,11.1379357 74.7529839,11.7420317 L74.75,27.7498983 C74.75,28.3529093 74.588869,29.0074597 74.1250069,29.5000678 L81.5728414,29.5000678 C81.1065379,29.0074597 80.999931,28.3209006 80.999931,27.7498983 L80.999931,23.7813644 C83.1366805,24.1874407 84.5586483,26.1711651 84.5586483,27.7583073 C84.5586483,28.3607758 84.416777,29.0071884 83.9518299,29.5000678 L91.3806759,29.5000678 C90.9141011,29.0074597 90.793931,28.2940458 90.7502575,27.6932049 C90.5001517,24.2498305 89.316354,21.8228672 87.1250805,20.6998508 Z M80.999931,18.7749898 L80.999931,15.2250102 C82.000354,15.2250102 83.2752966,15.5003391 83.2752966,17.0001356 C83.2752966,18.4999322 82.0000828,18.7749898 80.999931,18.7749898 Z M116.124869,15.2499661 C117.125292,15.2499661 118.159894,15.4390343 119,15.824766 L119,10.0005425 L106.875297,10.0005425 C107.3416,10.4049912 107.50029,11.1452597 107.50029,11.7504408 L107.50029,27.7498983 C107.50029,28.3550793 107.364657,29.0033908 106.898354,29.4995253 L119,29.4995253 L119,23.4249288 C118.160166,23.810118 117.125292,24.0002713 116.124869,24.0002713 L113.499844,24.0002713 L113.499844,22 L114.874611,22 C115.624929,22 116.287628,22.0724264 116.999697,22.3748813 L116.999697,17.1251865 C116.287628,17.4270989 115.624657,17.5000678 114.874611,17.5000678 L113.499844,17.5008816 L113.499844,15.2502374 L116.124869,15.2499661 Z M106.493356,25.4384918 L106.493356,17.4997966 L99.0126989,17.4997966 C98.6294023,17.4997966 98.1904966,17.4629052 97.7502345,17.3248339 L97.7502345,22.1746914 C98.1904966,22.0377051 98.6294023,21.9997287 99.0126989,21.9997287 L101.000253,21.9997287 L101.000253,23.499254 C100.753945,23.7197884 100.219011,23.8423979 99.6710575,23.8423979 C97.3959632,23.8423979 95.7255172,22.0477418 95.7255172,19.8746779 C95.7255172,17.7002577 97.3503908,15.749627 99.6254851,15.749627 C101.000524,15.749627 102.551885,16.1999186 104.250543,17.0014919 L104.250543,10 L99.2505977,10 C93.8532506,10 89.5507264,14.1779466 89.5507264,19.8258511 C89.5507264,25.3563 93.8836322,30 99.5007034,30 C102.596372,30 105.479913,28.7402685 106.987329,27.199783 C106.685411,26.6488539 106.493356,26.0990099 106.493356,25.4384918 Z" id="logo" fill="#FFFFFF" fill-rule="nonzero"></path>
    </g>
</svg>